<?xml version="1.0" standalone="no"?>
<!DOCTYPE svg PUBLIC "-//W3C//DTD SVG 1.1//EN" "http://www.w3.org/Graphics/SVG/1.1/DTD/svg11.dtd">
<svg xmlns="http://www.w3.org/2000/svg">
<metadata>Generated by Fontastic.me</metadata>
<defs>
<font id="hyperion" horiz-adv-x="512">
<font-face font-family="hyperion" units-per-em="512" ascent="480" descent="-32"/>
<missing-glyph horiz-adv-x="512" />

<glyph glyph-name="navigation-dashboard" unicode="&#57360;" d="M218 230l-119 0c-7 0-13-6-13-13l0-119c0-7 6-13 13-13l119 0c8 0 14 6 14 13l0 118c1 8-6 14-14 14z m1 197l-119 0c-7 0-13-6-13-13l0-119c0-7 6-13 13-13l119 0c7 0 14 6 14 13l0 119c0 7-7 13-14 13z m194-197l-119 0c-8 0-14-7-14-14l0-119c0-7 6-13 14-13l119 0c7 0 13 6 13 13l0 119c0 7-5 14-13 14z m0 198l-119 0c-8 0-14-6-14-13l0-119c0-7 6-14 14-14l119 0c7 0 13 7 13 14l0 119c0 7-6 13-13 13z m81-428l-476 0c-10 0-18 8-18 18l0 476c0 10 8 18 18 18l476 0c10 0 18-8 18-18l0-476c0-10-8-18-18-18z m-458 36l440 0 0 440-440 0z"/>
<glyph glyph-name="navigation-optimization" unicode="&#57361;" d="M256 95c-89 0-161 72-161 161 0 89 72 161 161 161 89 0 161-72 161-161 0-89-72-161-161-161z m0 286c-69 0-125-56-125-125 0-69 56-125 125-125 69 0 125 56 125 125 0 69-56 125-125 125z m72-125c0-40-32-72-72-72-40 0-72 32-72 72 0 40 32 72 72 72 40 0 72-32 72-72z m166-256l-476 0c-10 0-18 8-18 18l0 476c0 10 8 18 18 18l476 0c10 0 18-8 18-18l0-476c0-10-8-18-18-18z m-458 36l440 0 0 440-440 0z"/>
<glyph glyph-name="navigation-publisher" unicode="&#57362;" d="M373 437c-27 0-51-23-51-51 0-5 1-10 2-15l-39-26c-11 9-25 14-41 14-14 0-26-4-37-12l-39 41c4 6 6 12 6 20 0 24-20 43-43 43-25 0-43-19-43-43 0-24 19-43 43-43 4 0 8 1 12 2l42-45c-4-9-6-18-6-27 0-19 8-35 21-48l-37-64c-6 0-11 1-16 1-28 0-51-24-51-51 0-28 23-51 51-51 21 0 40 13 47 32l76-11c6-19 22-32 42-32 24 0 43 19 43 43 0 24-19 43-43 43-16 0-29-9-37-22l-79 12c-2 5-4 10-7 14l38 68c6-2 11-2 17-2 36 0 66 30 66 66 0 9-2 18-6 25l39 26c8-6 19-10 30-10 28 0 51 23 51 51 0 28-23 52-51 52z m-226-322c-10 0-18 8-18 18 0 9 8 17 18 17 3 0 7 0 10-3l1-1c3-3 5-6 6-10l0-1c0-2 0-4 0-6-1-8-8-14-17-14z m165 9c5 0 9-5 9-10 0-6-4-10-9-10-6 0-10 4-10 10 0 5 4 10 10 10z m-192 283c0 6 4 10 10 10 5 0 10-4 10-10 0-5-5-10-10-10-6 0-10 4-10 10z m124-147c-18 0-32 15-32 33 0 18 14 32 32 32 18 0 33-14 33-32 0-18-15-33-33-33z m129 108c-10 0-18 8-18 18 0 10 8 18 18 18 10 0 18-8 18-18 0-10-8-18-18-18z m121-368l-476 0c-10 0-18 8-18 18l0 476c0 10 8 18 18 18l476 0c10 0 18-8 18-18l0-476c0-10-8-18-18-18z m-458 36l440 0 0 440-440 0z"/>
<glyph glyph-name="navigation-report" unicode="&#57363;" d="M299 349l-95 0c-10 0-18 8-18 18 0 10 8 18 18 18l95 0c10 0 18-8 18-18 0-10-8-18-18-18z m60-107l-215 0c-10 0-18 8-18 18 0 9 8 18 18 18l216 0c10 0 18-9 18-18 0-10-8-18-19-18z m0-108l-215 0c-10 0-18 8-18 18 0 10 8 18 18 18l216 0c10 0 18-8 18-18 0-10-8-18-19-18z m135-134l-476 0c-10 0-18 8-18 18l0 476c0 10 8 18 18 18l476 0c10 0 18-8 18-18l0-476c0-10-8-18-18-18z m-458 36l440 0 0 440-440 0z"/>
<glyph glyph-name="navigation-search" unicode="&#57364;" d="M405 133l-90 89c34 47 31 112-12 153-23 24-53 35-83 35-29 0-61-11-83-35-47-46-47-120 0-167 23-23 54-35 83-35 24 0 49 8 70 23l90-89c3-4 8-5 12-5 5 0 9 1 13 5 7 8 7 19 0 26z m-244 101c-32 32-32 84 0 116 15 16 36 25 58 25 23 0 43-9 58-25 33-32 33-84 0-116-15-15-35-24-58-24-21 0-42 9-58 24z m333-234l-476 0c-10 0-18 8-18 18l0 476c0 10 8 18 18 18l476 0c10 0 18-8 18-18l0-476c0-10-8-18-18-18z m-458 36l440 0 0 440-440 0z"/>
<glyph glyph-name="navigation-social" unicode="&#57365;" d="M494 0l-476 0c-10 0-18 8-18 18l0 476c0 10 8 18 18 18l476 0c10 0 18-8 18-18l0-476c0-10-8-18-18-18z m-458 36l440 0 0 440-440 0z m232 71c-50 0-87 19-108 55-4 9-2 20 7 25 9 4 20 1 25-8 14-25 38-36 76-36 28 0 51 27 51 48 0 22-5 39-66 55-64 16-76 62-72 85 2 26 21 74 80 74 68 0 91-50 92-53 3-9-1-20-10-23-9-4-20 1-23 10-1 2-15 30-60 30-38 0-43-35-44-42l0-2c0-3-3-34 45-45 65-16 93-43 93-90 0-43-42-83-86-83z"/>
<glyph glyph-name="topheader-admin" unicode="&#57376;" d="M461 191c-1 11-8 18-16 21l-90 26-30-93c-1-3-5-3-7 0l-36 82c69 12 121 74 118 146-3 74-64 135-137 139-83 4-151-62-151-143 0-71 52-129 118-141l-36-82c-2-3-6-3-7 0l-30 93-90-26c-9-3-15-11-15-21l-20-192 195 0 22 149c0 1 0 2 0 2l-16 28c-1 2-2 6-1 9 4 8 10 26 16 38 2 0 5 0 8 0 3 0 6 0 8 0 6-12 12-30 15-38 2-3 1-7 0-9l-16-27c0-1-1-2 0-3l22-149 195 0z"/>
<glyph glyph-name="navigation-tool" unicode="&#57366;" d="M391 147l-114 114 20 20c6 6 9 14 7 23l-8 41c-2 8-7 15-15 19l-80 32-16-16 57-57c5-5 5-12 0-16l-37-37c-4-5-11-5-16 0l-57 57-16-16 32-80c4-8 11-13 19-15l41-8c8-2 17 1 23 7l20 20 114-114c3-3 8-5 12-5 5 0 9 2 13 5 8 8 8 19 1 26z m103-147l-476 0c-10 0-18 8-18 18l0 476c0 10 8 18 18 18l476 0c10 0 18-8 18-18l0-476c0-10-8-18-18-18z m-458 36l440 0 0 440-440 0z"/>
<glyph glyph-name="topheader-calendar" unicode="&#57377;" d="M220 275l-80 0c-5 0-10-1-15-2-5-1-11-2-16-3l66 67c7 7 14 14 21 22 7 8 13 14 18 23 5 8 9 16 12 25 3 8 4 18 4 28 0 12-1 22-6 32-4 9-10 17-17 24-8 7-16 12-27 15-10 4-21 5-33 5-12 0-23-1-33-5-11-3-20-8-28-14-8-7-15-15-20-25-5-10-9-21-11-34l22-3c6-1 10-1 13 1 2 2 5 5 7 10 0 5 3 10 6 15 2 4 6 7 10 11 4 3 8 6 14 8 5 1 11 2 17 2 6 0 12-1 18-2 5-2 10-5 13-8 4-4 7-8 10-14 2-5 3-12 3-19 0-7-1-14-3-21-2-7-5-14-10-20-4-7-8-13-14-20-6-6-12-13-19-20l-85-85c-2-3-4-5-5-9-1-3-2-6-2-8l0-14 184 0 0 25c0 4-1 8-4 10-2 2-6 3-10 3z m234 159c-5 17-12 32-21 43-9 11-20 20-32 26-12 6-25 8-40 8-13 0-26-2-39-8-12-6-22-14-32-26-8-11-15-26-20-43-5-17-8-37-8-61 0-24 3-45 8-62 5-17 12-32 20-43 9-11 20-20 32-26 12-5 25-8 39-8 14 0 27 2 40 8 12 5 22 14 32 26 9 12 16 26 21 43 5 17 8 38 8 62 0 24-4 44-8 61z m-39-112c-4-14-8-24-13-33-5-7-11-13-18-17-7-3-14-5-22-5-7 0-14 2-21 5-7 4-13 10-18 17-5 8-10 19-13 33-3 14-5 30-5 51 0 20 2 36 5 50 3 14 8 24 13 33 5 7 11 13 18 17 7 3 14 5 21 5 8 0 15-2 22-5 7-4 13-10 18-17 5-8 9-19 13-33 3-14 5-30 5-50 0-21-2-37-5-51z m-217-211c-1-1-2-2-2-2l-21-72c0-1 0-3 0-5 0-1-1-3-1-5 0 2-1 4-1 5 0 2-1 4-2 5l-24 72c-1 0-1 2-2 2-1 1-3 1-4 1l-5 0c-2 0-2-1-3-2-1-1-2-1-3-2l-24-71c-1-2-1-4-2-6 0-1 0-3 0-6 0 2-1 4-1 6 0 3-1 4-1 6l-21 71c0 1-1 2-1 3-1 1-3 1-5 1l-16 0 34-111 17 0 26 79c0 1 1 2 1 3 0 1 1 2 1 3 0-1 1-2 1-3 0-1 1-2 1-3l25-79 17 0 34 111-14 0c-2 1-3 0-4-1z m63-61l41 0 0 15-41 0 0 33 52 0 0 15-70 0 0-112 70 0 0 15-52 0z m166 47c-6 6-11 9-18 12-6 2-14 4-23 4l-42 0 0-112 42 0c9 0 17 2 23 5 7 2 13 7 18 11 5 5 8 11 11 17 2 7 4 15 4 22 0 8-2 16-4 23-3 6-6 13-11 18z m-6-57c-1-5-4-9-7-13-4-3-7-6-12-8-5-2-10-3-16-3l-23 0 0 82 24 0c6 0 11-1 16-2 4-2 8-5 12-8 3-3 6-8 7-13 2-5 3-11 3-17-1-7-2-13-4-18z"/>
<glyph glyph-name="topheader-notification" unicode="&#57378;" d="M480 123l-55 0 0 219c0 94-76 170-170 170-93 0-169-76-169-170l0-219-54 0c-7 0-12-5-12-12l0-35c0-6 5-12 12-12l151 0c8-36 37-64 72-64 35 0 65 27 72 64l153 0c7 0 12 6 12 12l0 35c0 7-5 12-12 12z"/>
<glyph glyph-name="topheader-setting" unicode="&#57379;" d="M457 256c0 7 0 13-1 20l41 18c8 4 11 12 9 20l-15 44c-2 8-10 12-18 10l-44-9c-7 11-14 21-23 32l22 38c5 7 3 17-4 21l-37 27c-7 6-15 4-21-2l-30-34c-12 5-24 9-37 11l-5 45c-1 8-7 15-15 15l-47 0c-7 0-14-6-15-15l-5-45c-12-2-25-6-36-12l-31 34c-5 6-14 7-21 3l-37-28c-7-5-9-14-4-21l22-38c-9-10-16-21-23-32l-44 9c-8 2-16-2-18-10l-15-44c-2-8 1-16 9-20l41-18c-1-6-1-13-1-19 0-7 0-13 1-20l-40-17c-8-4-12-12-9-20l15-44c2-8 10-12 18-10l44 9c6-11 14-21 23-32l-23-38c-4-7-2-17 5-21l37-28c7-5 15-3 21 3l30 34c12-6 24-10 37-12l5-45c1-8 7-15 15-15l47 0c7 0 14 6 15 15l4 45c13 2 25 6 37 12l31-34c5-6 14-7 21-3l37 28c7 5 9 14 4 21l-22 38c9 10 16 21 23 32l44-9c8-2 16 2 18 10l15 44c2 8-1 16-9 20l-41 18c0 6 0 13 0 19z m-183-135c-89-11-164 64-153 153 8 60 57 109 117 117 89 11 164-64 153-153-8-60-57-109-117-117z"/>
<glyph glyph-name="topheader-uservoice" unicode="&#57380;" d="M476 318l-4 0 0 22c0 95-97 172-216 172-119 0-216-77-216-173l0-22-4 0c-8 0-13-6-13-13l0-133c0-7 6-13 13-13l76 0c8 0 13 6 13 13l0 134c0 7-6 13-13 13l-26 0 0 22c0 69 76 126 170 126 94 0 170-57 170-127l0-22-26 0c-8 0-13-6-13-13l0-133c0-7 6-13 13-13l18 0c-8-40-31-71-52-92-4 2-8 3-13 3l-82 0c-18 0-34-16-34-35 0-18 16-34 34-34l82 0c19 0 35 16 35 34 0 2 0 3 0 5 26 25 57 66 65 120l23 0c7 0 13 6 13 13l0 133c0 7-5 13-13 13z"/>
<glyph glyph-name="trackingwidget-edit" unicode="&#57409;" d="M256 479c29 0 58-6 85-18 26-11 49-27 69-47 20-21 36-45 47-71 11-28 17-57 17-87 0-30-6-59-17-87-11-26-27-50-47-71-20-20-43-36-69-47-27-12-56-18-85-18-29 0-58 6-85 18-26 11-49 27-69 47-20 21-36 45-47 71-11 28-17 57-17 87 0 30 6 59 17 87 11 26 27 50 47 71 20 20 43 36 69 47 27 12 56 18 85 18m0 33c-139 0-251-115-251-256 0-141 112-256 251-256 139 0 251 115 251 256 0 141-112 256-251 256z m77-198l-19 19c-1 1-1 3 0 4l36 37c1 1 3 1 4 0l20-20c1-1 1-3 0-4l-37-36c-1-1-3-1-4 0z m-157-161l-33-14c-3-1-5 1-4 4l14 33c0 0 0 0 0 1l151 150c1 2 3 2 4 0l19-19c2-1 2-3 0-4l-150-151c-1 0-1 0-1 0z"/>
<glyph glyph-name="trackingwidget-view" unicode="&#57408;" d="M52 499l0-486c0-7 6-13 14-13l381 0c7 0 13 6 13 13l0 486c0 7-6 13-13 13l-381 0c-8 0-14-6-14-13z m372-466l-336 0c-1 0-2 1-2 3l0 440c0 2 1 3 2 3l336 0c1 0 2-1 2-3l0-440c0-2-1-3-2-3z m-31 303l-17 0 0 102c0 1 0 2-1 2l-16 0c-1 0-2-1-2-2l0-102-19 0 0 70c0 1 0 1-1 1l-16 0c-1 0-2 0-2-1l0-70-19 0 0 54c0 1 0 2-1 2l-16 0c-1 0-2-1-2-2l0-54-19 0 0 75c0 1 0 2-1 2l-16 0c-1 0-2-1-2-2l0-75-19 0 0 35c0 1 0 2-1 2l-16 0c-1 0-2-1-2-2l0-35-19 0 0 98c0 1 0 1-1 1l-16 0c-1 0-2 0-2-1l0-98-19 0 0 61c0 1 0 2-1 2l-16 0c-1 0-2-1-2-2l0-61-17 0c0 0-1 0-1-1l0-16c0-1 1-2 1-2l281 0c1 0 2 1 2 2l0 16c0 1-1 1-2 1z m-275-103l269 0c1 0 2 1 2 1l0 31c0 1-1 1-2 1l-269 0c-1 0-1 0-1-1l0-31c0 0 0-1 1-1z m0-70l269 0c1 0 2 1 2 2l0 30c0 1-1 2-2 2l-269 0c-1 0-1-1-1-2l0-30c0-1 0-2 1-2z m0-70l269 0c1 0 2 1 2 2l0 30c0 1-1 2-2 2l-269 0c-1 0-1-1-1-2l0-30c0-1 0-2 1-2z"/>
<glyph glyph-name="widget-close" unicode="&#57424;" d="M512 487l-25 25-231-231-231 231-25-25 231-231-231-231 25-25 231 231 231-231 25 25-231 231z"/>
<glyph glyph-name="widget-collapse" unicode="&#57425;" d="M254 202l204-201 25 25-229 227-224-227 25-25z m0 258l204-202 25 26-229 227-224-227 25-25z"/>
<glyph glyph-name="widget-download" unicode="&#57426;" d="M75 40l361 0 0-40-361 0z m199 92l0 380-35 0 0-381-153 153-25-24 195-195 195 194-25 25z"/>
<glyph glyph-name="widget-duplicate" unicode="&#57427;" d="M440 400l0 64-440 0 0-352 72 0 0-64 440 0 0 352z m32-320l-368 0 0 280 368 0z"/>
<glyph glyph-name="widget-expand" unicode="&#57428;" d="M260 309l-205 202-25-26 230-227 223 227-25 25z m0-258l-205 202-25-25 230-227 223 226-25 25z"/>
<glyph glyph-name="widget-fullscreen" unicode="&#57429;" d="M72 392l367 0 0-272-367 0z m287 32l113 0 0-112 40 0 0 152-153 0z m-359-112l40 0 0 112 112 0 0 40-152 0z m472-224l-113 0 0-40 153 0 0 152-40 0z m-432 112l-40 0 0-152 152 0 0 40-112 0z"/>
<glyph glyph-name="widget-refresh" unicode="&#57430;" d="M94 345c26 26 60 41 97 41l190 0 0-96 112 112-112 112 0-96-190 0c-23 0-46-4-67-13-20-9-39-20-54-36-16-16-29-34-37-55-9-21-14-42-14-66l35 0c0 41 14 71 40 97z m328-179c-26-26-60-40-97-40l-197 0 0 96-113-112 113-112 0 96 197 0c23 0 46 4 67 13 20 8 39 20 54 36 16 16 28 34 37 54 9 21 14 42 14 67l-35 0c0-41-14-72-40-98z"/>
<glyph glyph-name="widget-setting" unicode="&#57431;" d="M456 256c0 6 0 13-1 19l54 24-23 71-58-13c-6 11-14 22-22 32l29 50-60 44-39-44c-12 5-24 10-37 13l-6 60-74 0-6-60c-13-3-25-7-37-12l-39 43-60-43 29-51c-8-10-16-21-23-32l-57 13-23-71 54-24c-1-6-1-13-1-19 0-7 0-13 1-19l-54-24 23-71 57 12c7-11 15-21 23-31l-29-51 60-43 39 43c12-5 24-10 37-12l6-60 74 0 6 60c13 2 25 7 37 12l39-44 60 44-29 51c8 10 16 20 23 31l57-12 23 71-54 24c1 6 1 12 1 19z m-47-65c-8-19-20-37-36-52-15-16-33-28-52-36-21-9-43-13-65-13-22 0-44 4-65 13-19 8-37 20-52 36-16 15-28 33-36 52-9 21-13 42-13 65 0 22 4 44 13 65 8 19 20 37 36 52 15 16 33 27 52 36 21 9 43 13 65 13 22 0 44-4 65-13 19-8 37-20 52-36 16-15 28-33 36-52 9-21 13-43 13-65 0-23-4-44-13-65z"/>
<glyph glyph-name="widget-upload" unicode="&#57432;" d="M76 512l361 0 0-40-361 0z m162-132l0-380 35 0 0 381 153-154 25 25-195 195-195-195 25-24z"/>
<glyph glyph-name="diamond" unicode="&#57457;" d="M256 512l256-256-256-256-256 256z"/>
<glyph glyph-name="favorites-delete" unicode="&#57440;" d="M509 455l-505 0c-2 0-4-2-4-4l0-26c0-2 2-3 4-3l58 0 0-418c0-2 1-3 3-3l382 0c2 0 3 1 3 3l0 418 58 0c2 0 4 1 4 3l0 26c0 2-2 4-3 4z m-414-34l144 0 0-387-144 0z m322-387l-144 0 0 388 144 0z m-79 478l-164 0c-2 0-4-2-4-3l0-27c0-2 2-3 4-3l164 0c2 0 4 1 4 3l0 27c0 1-2 3-4 3z"/>
<glyph glyph-name="favorites-query" unicode="&#57442;" d="M87 0l345 0c2 0 3 2 3 4l0 27c0 2-1 4-3 4l-345 0c-2 0-3-2-3-4l0-27c0-2 1-4 3-4z m379 509l-97-255c-1-2-3-2-4 0l-84 254c-1 2-3 4-5 4l-33 0c-2 0-4-2-5-4l-85-256c-1-2-3-2-4 0l-103 257c-1 2-3 3-5 3l-26 0c-4 0-6-4-5-7l125-310c1-2 2-3 4-3l26 0c2 0 4 1 5 3l87 263c1 2 4 2 5 0l86-263c1-2 3-3 5-3l26 0c2 0 4 1 4 3l119 310c1 3-1 7-5 7l-26 0c-2 0-4-1-5-3z"/>
<glyph glyph-name="favorites-download" unicode="&#57441;" d="M393 341l-120-120 0 288c0 1-2 3-4 3l-26 0c-2 0-4-2-4-3l0-290-122 122c-1 2-3 2-4 0l-19-18c-1-2-1-4 0-5l159-159c1-1 4-1 5 0l159 159c1 1 1 3 0 4l-19 19c-1 1-4 1-5 0z m-306-341l345 0c2 0 3 2 3 4l0 27c0 2-1 4-3 4l-345 0c-2 0-3-2-3-4l0-27c0-2 1-4 3-4z"/>
<glyph glyph-name="login-arrow" unicode="&#57472;" d="M314 453l0-394 197 197z m-314-167l314 0 0-59-314 0z"/>
<glyph glyph-name="login-key" unicode="&#57473;" d="M253 274l259 0 0-108-37 0 0 72-69 0 0-72-36 0 0 72-117 0c-9-62-62-109-126-109-70 0-127 57-127 127 0 70 57 127 127 127 64 0 117-47 126-109z m-126 72c-24 0-47-9-64-26-17-17-26-40-26-64 0-50 40-90 90-90 50 0 90 40 90 90 0 50-40 90-90 90z"/>
<glyph glyph-name="arrow-down" unicode="&#57491;" d="M0 363l42 42 214-215 214 215 42-42-256-256z"/>
<glyph glyph-name="grid-triangle-down" unicode="&#57504;" d="M1 384l255-256 255 256z"/>
<glyph glyph-name="arrow-left" unicode="&#57490;" d="M363 512l42-42-215-214 215-214-42-42-256 256z"/>
<glyph glyph-name="arrow-right" unicode="&#57489;" d="M149 0l-42 42 215 214-215 214 42 42 256-256z"/>
<glyph glyph-name="arrow-up" unicode="&#57488;" d="M512 149l-42-42-214 215-214-215-42 42 256 256z"/>
<glyph glyph-name="double-arrow-down" unicode="&#57492;" d="M100 512l156-155 156 155 41-41-197-197-197 197z m0-274l156-155 156 155 41-41-197-197-197 197z"/>
<glyph glyph-name="double-arrow-up" unicode="&#57493;" d="M412 0l-156 155-156-155-41 41 197 197 197-197z m0 274l-156 155-156-155-41 41 197 197 197-197z"/>
<glyph glyph-name="grid-frozen-mark" unicode="&#57494;" d="M115 512l0-371 141-141 141 141 0 371z"/>
<glyph glyph-name="grid-resizing-arrow-left" unicode="&#57495;" d="M384 1l0 510-256-255z"/>
<glyph glyph-name="grid-resizing-arrow-right" unicode="&#57496;" d="M128 511l0-510 256 255z"/>
<glyph glyph-name="grid-resizing-arrows" unicode="&#57497;" d="M374 394l0-276 138 138z m-236 0l-138-138 138-138z"/>
<glyph glyph-name="search-icon" unicode="&#57498;" d="M194 482c-90 0-163-74-163-164 0-90 73-163 163-163 90 0 164 73 164 163 0 90-74 164-164 164z m194-164c0-48-17-92-47-126l171-171-22-21-170 170c-34-28-78-46-126-46-107 0-194 87-194 194 0 107 87 194 194 194 107 0 194-87 194-194z"/>
<glyph glyph-name="column-picker-lock" unicode="&#57499;" d="M399 297l0 72c0 79-64 143-143 143-79 0-143-64-143-143l0-72-62 0 0-297 410 0 0 297z m-234 72c0 51 41 92 91 92 50 0 91-41 91-92l0-72-182 0z"/>
<glyph glyph-name="checkmark" unicode="&#57456;" d="M198 85l-197 197 25 25 172-172 288 292 26-26z"/>
<glyph glyph-name="exclamation" unicode="&#57458;" d="M279 366l-46 0 0-92c0-9 1-19 2-29 1-9 3-19 5-29l33 0c2 10 3 20 5 29 1 10 1 20 1 29z m-23-180c-4 0-8-1-11-3-4-1-7-3-9-5-3-3-5-6-6-9-2-3-2-7-2-11 0-3 0-7 2-10 1-4 3-7 6-9 2-3 5-4 9-6 3-1 7-2 11-2 4 0 7 1 11 2 3 2 6 3 9 6 2 2 4 5 6 9 1 3 2 7 2 10 0 4-1 8-2 11-2 3-4 6-6 9-3 2-6 4-9 5-4 2-7 3-11 3z m255 70c0-141-114-255-255-255-141 0-255 114-255 255 0 141 114 255 255 255 141 0 255-114 255-255z"/>
<glyph glyph-name="registration-password" unicode="&#57459;" d="M399 297l0 72c0 79-64 143-143 143-79 0-143-64-143-143l0-72-62 0 0-297 410 0 0 297z m-234 72c0 51 41 92 91 92 50 0 91-41 91-92l0-72-182 0z"/>
<glyph glyph-name="registration-login" unicode="&#57460;" d="M426 343c0-36-11-68-29-96 73-51 113-143 113-248l-508 0c0 105 40 197 113 248-18 28-29 60-29 96 0 93 76 170 170 170 94 0 170-77 170-170z"/>
<glyph glyph-name="registration-contact" unicode="&#57461;" d="M417 501c0 0 79-53 79-144 0-91-71-184-104-218-34-34-114-130-214-138-101-9-151 65-151 65 0 0-23 29 0 53 23 24 59 50 59 50 0 0 44 36 85-7l17-19c0 0 27-32 62-6 34 26 99 98 107 114 9 15 26 45 4 76-22 31-36 36-36 36 0 0-37 20-7 72 30 52 58 99 99 66z"/>
<glyph glyph-name="navigation2-dashboard" unicode="&#57462;" d="M173 206l-141 0c-18 0-32-14-32-32l0-142c0-17 14-32 32-32l141 0c18 0 33 15 33 32l0 142c0 18-15 32-33 32z m0 306l-141 0c-18 0-32-15-32-32l0-142c0-18 14-32 32-32l141 0c18 0 33 14 33 32l0 142c0 17-15 32-33 32z m307-306l-141 0c-18 0-33-14-33-32l0-142c0-17 15-32 33-32l141 0c18 0 32 15 32 32l0 142c0 18-14 32-32 32z m0 306l-141 0c-18 0-33-15-33-32l0-142c0-18 15-32 33-32l141 0c18 0 32 14 32 32l0 142c0 17-14 32-32 32z"/>
<glyph glyph-name="navigation2-display" unicode="&#57463;" d="M488 470l-464 0c-13 0-24-11-24-24l0-323c0-13 11-24 24-24l464 0c13 0 24 11 24 24l0 323c0 13-11 24-24 24z m4-347c0-2-2-4-4-4l-464 0c-2 0-4 2-4 4l0 323c0 2 2 4 4 4l464 0c2 0 4-2 4-4z m-128-61l-223 0c-5 0-10-4-10-10 0-6 5-10 10-10l223 0c5 0 10 4 10 10 0 6-5 10-10 10z m65 327c-1 3-2 5-4 7-2 2-5 2-7 2l-42-3c-6-1-10-6-9-11 0-6 5-10 11-10l19 2-61-97-53 49c-3 2-6 3-9 3-3-1-6-3-7-5l-57-103-53 36c-3 2-8 2-11 0l-66-49c-4-3-5-9-2-14 2-2 5-4 8-4 2 0 5 1 6 2l60 44 56-38c2-2 5-2 8-1 3 0 5 2 7 5l55 100 53-48c2-2 5-3 8-3 3 0 6 2 8 5l64 102 1-15c0-5 5-9 10-9 0 0 1 0 1 0 6 0 10 5 9 11z"/>
<glyph glyph-name="navigation2-extension" unicode="&#57464;" d="M340 207l25 113-85 78-26-113z m55 115l-29-130 108 36c1 0 2 1 3 3l28 136c0 2-1 3-2 4l-103 93c-1 1-3 1-4 0l-107-35 101-93c4-4 6-9 5-14z m-307-68l28 129c2 5 5 9 10 11l132 42-82 75c0 1-1 1-2 1l-1 0c0 0 0 0 0 0l-133-42c-1 0-2-1-3-3l-30-136c0 0 0 0 0-1l0 0c0-1 1-2 1-3z m227-210c1 0 2 1 2 3l25 116-130-41c-1-1-3-1-4-1-4 0-7 1-10 4l-99 91-25-118c0-2 1-3 2-4l103-93c1-1 2-1 3-1l0 0c0 0 1 0 1 0z m-189 185l85-78 110 35-86 78z m17 140l-25-113 108 35 26 113 0 0z"/>
<glyph glyph-name="navigation2-negative" unicode="&#57465;" d="M256 0c-141 0-255 114-255 255 0 143 114 257 255 257 141 0 255-114 255-255 0-143-114-257-255-257z m0 481c-124 0-224-100-224-224 0-126 100-226 224-226 124 0 224 100 224 224 0 126-100 226-224 226z m128-248l-250 0c-9 0-16 7-16 16 0 8 7 15 16 15l250 0c9 0 15-7 15-15 1-9-6-16-15-16z"/>
<glyph glyph-name="navigation2-optimization" unicode="&#57466;" d="M256 0c-141 0-255 115-255 256 0 141 114 256 255 256 141 0 255-115 255-256 0-141-114-256-255-256z m0 480c-123 0-223-100-223-224 0-124 100-224 223-224 123 0 223 100 223 224 0 124-100 224-223 224z m120-224c0-66-54-120-120-120-66 0-120 54-120 120 0 66 54 120 120 120 66 0 120-54 120-120z"/>
<glyph glyph-name="navigation2-publisher" unicode="&#57467;" d="M464 480c-27 0-48-22-48-48 0-7 1-13 3-18 0 0-1 0-1-1l-87-59c0-1-1-1-1-1-12 11-28 18-46 18-18 0-34-7-46-18l-82 86c0 1 0 1 0 1 4 6 6 13 6 21 0 21-16 38-37 38-21 0-37-17-37-38 0-7 2-13 5-19-1-1-2-2-3-4l-43-89c-1-2-1-4-1-6-3 1-6 1-8 1-21 0-38-16-38-37 0-21 17-38 38-38 20 0 37 17 37 38 0 11-5 21-12 28 2 1 3 2 4 4l43 88c5-2 10-3 15-3 5 0 9 1 13 2 0-1 1-1 1-2l83-87c1-1 1-2 2-2-5-10-8-21-8-33 0-22 10-41 25-54 0 0 0 0 0 0l-72-127c-6 3-13 4-21 4-26 0-48-21-48-48 0-26 22-48 48-48 23 0 42 16 47 37l141-21c1 0 1 0 2 0 1 0 2 0 4 0 2-18 18-32 37-32 20 0 37 17 37 38 0 20-17 37-37 37-16 0-29-9-35-23-1 1-3 2-5 2l-142 21c-1 0-1 1-2 1-1 6-4 12-9 18 1 0 2 1 2 2l73 127c0 1 0 1 0 1 7-3 15-4 23-4 38 0 69 31 69 69 0 12-3 23-9 33l87 60c0 0 1 0 1 1 9-8 20-13 32-13 27 0 48 22 48 49 0 26-22 48-48 48z"/>
<glyph glyph-name="navigation2-report" unicode="&#57468;" d="M407 491c13 0 24-11 24-24l0-422c0-13-11-24-24-24l-302 0c-13 0-24 11-24 24l0 422c0 13 11 24 24 24z m0 21l-302 0c-25 0-45-20-45-45l0-422c0-25 20-45 45-45l302 0c25 0 45 20 45 45l0 422c0 25-20 45-45 45z m-110-142l-90 0c-6 0-11 5-11 11 0 6 5 11 11 11l90 0c6 0 11-5 11-11 0-6-5-11-11-11z m58-168l-206 0c-5 0-10 4-10 10 0 6 5 11 10 11l206 0c6 0 10-5 10-11 0-6-4-10-10-10z m0-79l-206 0c-5 0-10 4-10 10 0 6 5 11 10 11l206 0c6 0 10-5 10-11 0-6-4-10-10-10z m0 157l-206 0c-5 0-10 5-10 11 0 6 5 10 10 10l206 0c6 0 10-4 10-10 0-6-4-11-10-11z"/>
<glyph glyph-name="navigation2-search" unicode="&#57469;" d="M506 27l-157 158c67 78 63 195-10 269-39 38-90 58-140 58-51 0-101-20-140-58-77-78-77-203 0-281 39-39 89-58 140-58 45 0 91 16 128 47l157-157c3-3 7-5 11-5 4 0 8 2 11 5 6 6 6 16 0 22z m-424 168c-65 65-65 171 0 236 31 32 73 49 117 49 44 0 86-17 117-49 65-65 65-171 0-236-31-31-73-48-117-48-44 0-86 17-117 48z"/>
<glyph glyph-name="navigation2-social" unicode="&#57470;" d="M387 446c-2-5-5-7-9-7-3 0-7 3-12 7-5 4-11 9-20 15-8 5-18 10-30 14-13 5-28 7-46 7-18 0-34-3-48-8-14-5-25-12-34-21-10-9-17-19-22-31-4-12-7-24-7-37 0-17 4-31 11-42 7-12 17-21 28-29 12-8 25-14 40-19 15-6 31-11 46-16 16-5 31-11 46-17 15-7 29-14 40-24 12-9 22-21 29-35 7-14 11-31 11-51 0-21-4-41-11-60-7-18-18-34-31-48-14-14-31-24-50-32-20-8-43-12-68-12-33 0-61 6-85 17-24 12-45 28-62 48l9 16c3 3 7 5 10 5 2 0 5-1 8-4 4-3 8-6 12-10 5-5 11-9 17-14 7-5 15-9 23-13 9-5 19-8 30-11 12-3 24-4 39-4 19 0 37 3 53 9 15 6 28 14 39 25 10 10 19 22 24 37 6 14 9 29 9 45 0 18-4 33-11 44-7 11-17 21-28 29-12 7-25 14-40 19-15 5-31 10-46 15-16 5-31 11-46 17-15 6-29 14-40 23-12 10-22 22-29 36-7 14-11 32-11 54 0 17 4 33 10 48 6 16 16 30 28 41 12 12 27 22 45 29 18 7 39 11 62 11 26 0 49-4 69-13 21-8 40-20 56-37z"/>
<glyph glyph-name="navigation2-tool" unicode="&#57471;" d="M506 30l-215 216 4 3 45 45c11 12 16 28 13 44l-15 77c-3 16-14 30-29 36l-150 61-30-30 108-108c9-9 9-22 0-30l-68-69c-8-9-22-9-30 0l-108 108-30-30 61-150c6-16 19-27 35-30l78-15c15-3 31 2 43 14l45 45 3 3 215-215c3-3 8-5 12-5 5 0 9 2 13 5 7 7 7 18 0 25z"/>
<glyph glyph-name="trackingwidget-campaign" unicode="&#57392;" d="M473 389l-211 121c-4 3-9 2-12 0l-211-121c-4-3-6-7-6-11l0-244c0-4 2-8 6-10l211-122c2-1 4-2 6-2 2 0 4 1 6 2l211 122c4 2 6 6 6 10l0 244c0 4-2 8-6 11z m1-255c0-2-1-5-4-6l-210-122c-3-1-5-1-8 0l-170 98 66 101 39-59c1-2 3-2 4 0l17 27 32-50c1-1 4-1 5 0l70 109 32-49c1-2 4-2 5 0l57 87 12-9c2-1 4 0 4 3l0 40c0 2-2 4-4 3l-38-12c-2-1-3-4-1-5l13-10-46-70-32 49c-1 2-3 2-4 0l-70-109-33 50c-1 2-3 2-4 0l-17-27 0 0-39 59c-1 2-3 2-4 0l-78-119-27 15c-2 1-3 4-3 6l0 244c0 2 1 5 4 6l210 122c2 1 3 1 4 1 1 0 3 0 4-1l210-122c3-1 4-4 4-6z"/>
<glyph glyph-name="trackingwidget-clicks" unicode="&#57393;" d="M473 389l-211 121c-4 3-9 2-12 0l-211-121c-4-3-6-7-6-11l0-244c0-4 2-8 6-10l211-122c2-1 4-2 6-2 2 0 4 1 6 2l211 122c4 2 6 6 6 10l0 244c0 4-2 8-6 11z m1-255c0-2-1-5-4-6l-210-122c-3-1-5-1-8 0l-170 98-14 9-26 15c-3 1-4 4-4 6l0 244c0 2 1 5 4 6l210 122c2 1 3 1 4 1 1 0 3 0 4-1l210-122c3-1 4-4 4-6z m-69 135c0 82-67 148-149 148-82 0-149-66-149-148 0-83 67-149 149-149 15 0 30 2 44 6l5-25c0-2 3-3 4-1l21 40c7 3 13 7 18 12l48 1c2 0 2 2 1 4l-25 19c21 25 33 57 33 93z m-127-24l9-51c-9-4-20-6-31-6-45 0-81 36-81 81 0 44 36 80 81 80 45 0 81-36 81-80 0-20-7-38-18-51l-38 29c-2 1-4 0-3-2z m50-35c13 16 21 36 21 59 0 51-42 92-93 92-51 0-93-41-93-92 0-52 42-93 93-93 12 0 23 2 33 6l9-44c-14-4-28-6-42-6-75 0-137 61-137 137 0 75 62 136 137 136 75 0 137-61 137-136 0-33-12-62-30-86z m-18-127l33 60c0 0 1 1 2 1l68 1c2 0 3 3 1 4l-136 107c-2 1-4 0-4-2l32-171c0-2 3-2 4 0z m33 79l-17-10 50-81 16 10z"/>
<glyph glyph-name="trackingwidget-impression" unicode="&#57394;" d="M473 389l-211 121c-4 3-9 2-12 0l-211-122c-4-2-6-6-6-10l0-244c0-4 2-8 6-11l211-121c2-1 4-2 6-2 2 0 4 1 6 2l211 121c4 3 6 7 6 11l0 244c0 4-2 8-6 11z m1-255c0-2-1-5-4-6l-210-122c-3-1-5-1-8 0l-170 98-14 9-26 15c-3 1-4 4-4 6l0 244c0 2 1 5 4 6l210 122c2 1 3 1 4 1 1 0 3 0 4-1l210-122c3-1 4-4 4-6z m-248 244c24 0 48-9 65-27 17-17 27-40 27-65 0-24-10-48-27-65-17-17-41-27-65-27-25 0-48 10-65 27-18 17-27 41-27 65 0 25 9 48 27 65 17 18 40 27 65 27m0 15c-27 0-55-11-75-32-42-41-42-109 0-150 20-21 48-31 75-31 27 0 54 10 75 31 42 41 42 109 0 150-21 21-48 32-75 32m159-274c-1 0-3 1-5 3l-89 89c-3 3-3 7 0 10 3 3 7 3 10 0l90-89c2-3 2-8 0-10-2-2-4-3-6-3z"/>
<glyph glyph-name="trackingwidget-profits" unicode="&#57395;" d="M338 340c-1 3-7 14-18 25-6 5-15 11-27 16l3 27c0 4-3 8-7 8-4 1-8-2-8-6l-3-26c-4 1-8 2-13 2l2 22c1 4-2 8-6 8-5 1-8-2-9-6l-2-24c-22-3-36-14-43-24-14-16-16-34-16-40-2-12 1-27 9-39 6-9 17-21 36-29l-12-107c-2 1-5 2-7 3-12 6-22 15-29 27-2 4-7 5-10 3-4-2-5-6-3-10 9-15 20-26 35-34 4-2 9-3 13-5l-3-27c0-4 3-8 7-8 0 0 0 0 0 0 4 0 7 2 8 6l3 26c4-1 8-1 13-2l-2-22c-1-4 2-8 6-8 1 0 1 0 1 0 4 0 7 2 8 6l2 24c16 0 32 7 45 20 11 11 18 26 18 40 2 17-4 34-17 47-8 9-19 16-32 22l11 110c7-3 13-6 18-11 10-9 14-18 14-19 2-3 6-5 10-4 4 1 6 5 5 9m-61 30l-12-109c-3 0-6 1-9 2-2 0-3 1-4 1l11 107c5 0 9-1 14-1m-64-79c-7 11-9 22-8 29l1 1c0 8 4 21 12 32 8 9 18 15 30 17l-10-100c-11 5-20 12-25 21m26-148l11 106c1 0 1 0 2 0 4-1 8-2 12-4l-11-104c-5 1-10 1-14 2m62 80c10-10 14-23 13-36l0 0 0 0c0-10-5-22-14-31-9-9-21-14-32-15l10 98c9-4 17-10 23-16m172 166l-211 121c-4 3-9 2-12 0l-211-122c-4-2-6-6-6-10l0-244c0-4 2-8 6-11l211-121c2-1 4-2 6-2 2 0 4 1 6 2l211 121c4 3 6 7 6 11l0 244c0 4-2 8-6 11z m1-255c0-2-1-5-4-6l-210-122c-3-1-5-1-8 0l-170 98-14 9-26 15c-3 1-4 4-4 6l0 244c0 2 1 5 4 6l210 122c2 1 3 1 4 1 1 0 3 0 4-1l210-122c3-1 4-4 4-6z"/>
<glyph glyph-name="trackingwidget-roi" unicode="&#57396;" d="M473 389l-211 121c-4 3-9 2-12 0l-211-122c-4-2-6-6-6-10l0-244c0-4 2-8 6-11l211-121c2-1 4-2 6-2 2 0 4 1 6 2l211 121c4 3 6 7 6 11l0 244c0 4-2 8-6 11z m1-255c0-2-1-5-4-6l-210-122c-3-1-5-1-8 0l-170 98-14 9-26 15c-3 1-4 4-4 6l0 244c0 2 1 5 4 6l210 122c2 1 3 1 4 1 1 0 3 0 4-1l210-122c3-1 4-4 4-6z m-67 126l-17 0 0 100c0 4-3 8-8 8-4 0-8-4-8-8l0-100-23 0 0 26c0 4-4 8-8 8-5 0-8-4-8-8l0-26-23 0 0 79c0 4-4 8-9 8-4 0-8-4-8-8l0-79-23 0 0 44c0 5-3 9-8 9-4 0-8-4-8-9l0-44-143 0 0 77c0 5-4 8-9 8-4 0-8-3-8-8l0-170c0-4 4-8 8-8 5 0 9 4 9 8l0 77 25 0 0-70c0-4 4-8 8-8 5 0 8 4 8 8l0 70 23 0 0-124c0-5 4-8 8-8 5 0 9 3 9 8l0 124 23 0 0-28c0-5 3-8 8-8 4 0 8 3 8 8l0 28 174 0c5 0 8 4 8 8 0 5-3 8-8 8z m-264 26c2 0 5 1 6 2l36 37 20-20 70 70 13-14c1-1 3 0 3 1l0 37c0 1-1 1-2 1l-36 0c-2 0-2-1-1-2l11-12-58-58-20 20-47-48c-3-4-3-9 0-12 1-1 3-2 5-2z"/>
<glyph glyph-name="navigation-favorite-star" unicode="&#57474;" d="M256 499l71-171 185-15-142-120 44-180-158 97-158-97 44 180-142 120 185 15z"/>
<glyph glyph-name="navigation-logout" unicode="&#57381;" d="M16 231l0 50 226 0 0-49z m194-79l0 208 104-104z m-57 310l294 0 0-412-294 0 0 107-49 0 0-140c0-9 7-17 17-17l358 0c10 0 17 8 17 17l0 478c0 9-7 17-17 17l-358 0c-10 0-17-8-17-17l0-140 49 0z"/>
<glyph glyph-name="grid-triangle-up" unicode="&#57505;" d="M0 255l256 257 256-257z"/>
</font>
</defs>
</svg>
